<svg version="1.1" xmlns="http://www.w3.org/2000/svg" style="display: block;" viewBox="0 0 2048 2048" width="1200" height="630" preserveAspectRatio="xMidYMid slice">
<defs>
  <linearGradient id="bgGrad" x1="0%" y1="0%" x2="100%" y2="100%">
    <stop offset="0%" style="stop-color:#0A1520;stop-opacity:1" />
    <stop offset="100%" style="stop-color:#0F1B2A;stop-opacity:1" />
  </linearGradient>
</defs>
<!-- Background -->
<rect width="2048" height="2048" fill="url(#bgGrad)"/>
<path transform="translate(0,0)" fill="rgb(37,71,130)" d="M 1368.69 664.67 C 1384.24 677.989 1400.81 690.427 1416.67 703.366 C 1422.53 708.146 1432.3 715.144 1437.45 719.953 C 1440.46 722.372 1445.77 726.378 1448.38 728.909 C 1451.54 731.656 1455.02 734.555 1458.05 737.399 C 1457.69 777.524 1457.19 821.147 1458 861.17 C 1401.43 861.183 1343.97 860.703 1287.48 861.479 C 1287.77 911.832 1288.26 964.31 1287.37 1014.55 C 1371.49 1062.85 1455.31 1111.65 1538.83 1160.96 L 1606.99 1200.46 C 1617.08 1206.36 1630.89 1213.95 1640.25 1220.52 C 1621.55 1254.24 1601.75 1287.61 1582.75 1321.18 C 1579.03 1327.76 1574.98 1334.57 1570.73 1340.82 C 1476.03 1288.06 1382.37 1229.66 1287.38 1176.6 C 1288.28 1201.94 1287.97 1228.59 1287.78 1254.05 C 1286.99 1358.26 1288.92 1462.85 1287.73 1567.01 C 1240.43 1564.73 1188.48 1566.77 1140.97 1567.18 C 1132.81 1561.44 1120.77 1551.06 1112.42 1544.49 C 1089.48 1526.26 1066.33 1508.31 1042.96 1490.65 C 1040.36 1481.97 1042.05 1411.21 1042.05 1398.35 L 1041.99 1117.94 L 1042.02 1047.73 L 1042.22 1032.73 L 1033.75 1028.35 C 1039.43 1022.34 1048.25 1020.04 1055.52 1015.72 C 1099.41 989.635 1140.08 957.159 1182.92 929.885 L 1182.9 904.187 L 1182.88 774.983 L 1183.66 774.926 C 1191.98 771.822 1348.32 773.243 1368.76 773.328 L 1368.69 664.67 z M 1287.86 1160.18 C 1346.34 1192.26 1404.46 1227.38 1462.13 1260.99 C 1496.44 1280.99 1531.55 1300.61 1565.49 1321.13 C 1572.22 1308.94 1579.09 1296.83 1586.11 1284.8 C 1597.21 1265.55 1608.91 1244.37 1620.42 1225.54 L 1392.85 1092.54 C 1358.18 1072.42 1322.36 1050.52 1287.08 1031.87 C 1287.82 1074.56 1286.85 1117.67 1287.86 1160.18 z"/>
<path transform="translate(0,0)" fill="rgb(145,145,145)" d="M 1183.1 1040.12 L 1183.86 1040.39 C 1185.86 1189.33 1181.72 1340.37 1184.21 1489.41 C 1172.34 1489.32 1160.47 1489.39 1148.61 1489.62 L 1076.42 1489.83 C 1069.73 1489.87 1048.43 1489.63 1042.96 1490.65 C 1040.36 1481.97 1042.05 1411.21 1042.05 1398.35 L 1041.99 1117.94 C 1089.06 1118.34 1136.14 1118.43 1183.21 1118.21 C 1182.65 1092.77 1183.1 1065.68 1183.1 1040.12 z"/>
<path transform="translate(0,0)" fill="rgb(204,204,204)" d="M 1042.02 1047.73 C 1050.02 1044.21 1068.2 1031.89 1076.03 1026.8 C 1097.07 1013.04 1117.9 998.974 1138.52 984.602 C 1152.58 974.794 1168.66 962.901 1183.15 954.079 L 1183.1 1040.12 C 1183.1 1065.68 1182.65 1092.77 1183.21 1118.21 C 1136.14 1118.43 1089.06 1118.34 1041.99 1117.94 L 1042.02 1047.73 z"/>
<path transform="translate(0,0)" fill="rgb(52,52,52)" d="M 1148.61 1489.62 C 1160.28 1489.59 1171.96 1489.64 1183.64 1489.76 C 1205.08 1504.09 1227.16 1520.86 1247.99 1536.15 C 1256.76 1542.59 1280.83 1559.92 1287.73 1567.01 C 1240.43 1564.73 1188.48 1566.77 1140.97 1567.18 C 1132.81 1561.44 1120.77 1551.06 1112.42 1544.49 C 1089.48 1526.26 1066.33 1508.31 1042.96 1490.65 C 1048.43 1489.63 1069.73 1489.87 1076.42 1489.83 L 1148.61 1489.62 z"/>
<path transform="translate(0,0)" fill="rgb(145,145,145)" d="M 1182.88 774.983 L 1183.66 774.926 C 1183.98 826.166 1184.02 877.408 1183.8 928.649 C 1183.82 965.034 1184.77 1004.2 1183.86 1040.39 L 1183.1 1040.12 L 1183.15 954.079 C 1168.66 962.901 1152.58 974.794 1138.52 984.602 C 1117.9 998.974 1097.07 1013.04 1076.03 1026.8 C 1068.2 1031.89 1050.02 1044.21 1042.02 1047.73 L 1042.22 1032.73 L 1033.75 1028.35 C 1039.43 1022.34 1048.25 1020.04 1055.52 1015.72 C 1099.41 989.635 1140.08 957.159 1182.92 929.885 L 1182.9 904.187 L 1182.88 774.983 z"/>
<path transform="translate(0,0)" fill="rgb(75,182,225)" d="M 364.565 531.165 C 404.924 553.537 444.988 576.438 484.746 599.861 C 503.833 610.926 528.52 626.074 547.837 635.533 C 554.146 624.568 560.07 611.997 566.208 601.718 C 597.078 618.715 627.229 637.596 657.64 655.414 C 662.205 658.089 667.238 660.989 671.594 663.942 C 702.699 665.149 735.07 663.71 766.243 664.134 C 774.382 664.244 799.958 663.472 806.574 665.003 C 830.543 683.412 854.559 703.712 878.571 721.607 C 878.425 739.097 878.427 756.588 878.579 774.077 C 878.652 796.757 879.079 819.434 879.859 842.101 C 887.353 846.494 891.692 847.602 900.385 848.278 L 904.796 849.698 C 904.644 867.291 904.794 884.886 905.245 902.474 L 905.376 920.539 C 905.195 927.048 905.126 930.699 905.725 937.227 C 905.325 943.538 905.042 948.36 905.175 954.703 C 904.325 1000.17 904.49 1051.03 905.183 1096.64 C 892.455 1106.65 866.099 1122.16 852.158 1130.98 C 840.626 1138.28 818.386 1152.33 806.477 1158.38 C 787.17 1171.14 762.045 1185.22 741.746 1196.65 C 721.302 1208.17 693.182 1224.69 672.037 1234.09 L 671.698 1099.69 L 671.547 1081.41 C 673.022 1058.88 672.002 1022.18 671.721 998.756 L 671.841 887.272 C 671.856 868.741 672.635 843.008 671.426 825.026 C 649.241 813.051 624.708 797.591 602.744 784.569 L 493.972 720.641 C 435.571 686.202 373.469 652.234 315.934 617.105 C 320.042 608.687 328.023 595.749 332.935 587.311 C 343.531 568.527 354.337 550.174 364.565 531.165 z M 671.082 679.629 C 638.105 660.839 604.965 640.444 571.818 622.372 C 559.99 649.98 533.048 689.928 518.66 718.265 C 569.552 747.188 620.475 778.343 671.622 807.69 C 672.829 792.572 671.819 761.421 671.877 745.342 C 671.936 728.873 672.751 694.848 671.082 679.629 z"/>
<path transform="translate(0,0)" fill="rgb(30,35,97)" d="M 806.574 665.003 C 830.543 683.412 854.559 703.712 878.571 721.607 C 878.425 739.097 878.427 756.588 878.579 774.077 C 878.652 796.757 879.079 819.434 879.859 842.101 C 887.353 846.494 891.692 847.602 900.385 848.278 L 904.796 849.698 C 904.644 867.291 904.794 884.886 905.245 902.474 L 905.376 920.539 C 905.195 927.048 905.126 930.699 905.725 937.227 C 905.325 943.538 905.042 948.36 905.175 954.703 C 904.325 1000.17 904.49 1051.03 905.183 1096.64 C 892.455 1106.65 866.099 1122.16 852.158 1130.98 C 840.626 1138.28 818.386 1152.33 806.477 1158.38 C 787.17 1171.14 762.045 1185.22 741.746 1196.65 C 721.302 1208.17 693.182 1224.69 672.037 1234.09 L 671.698 1099.69 L 671.547 1081.41 C 673.022 1058.88 672.002 1022.18 671.721 998.756 L 805.852 999.03 L 805.861 908.342 C 805.867 897.491 805.271 869.837 806.737 860.462 L 806.574 665.003 z"/>
<path transform="translate(0,0)" fill="rgb(29,137,195)" d="M 805.852 999.03 L 805.861 908.342 C 805.867 897.491 805.271 869.837 806.737 860.462 C 807.475 897.956 806.632 937.228 806.596 974.879 L 806.477 1158.38 C 787.17 1171.14 762.045 1185.22 741.746 1196.65 C 721.302 1208.17 693.182 1224.69 672.037 1234.09 L 671.698 1099.69 L 671.547 1081.41 C 673.022 1058.88 672.002 1022.18 671.721 998.756 L 805.852 999.03 z"/>
<path transform="translate(0,0)" fill="rgb(75,182,225)" d="M 364.565 531.165 C 404.924 553.537 444.988 576.438 484.746 599.861 C 503.833 610.926 528.52 626.074 547.837 635.533 C 554.146 624.568 560.07 611.997 566.208 601.718 C 597.078 618.715 627.229 637.596 657.64 655.414 C 662.205 658.089 667.238 660.989 671.594 663.942 C 671.568 669.394 671.589 674.169 671.082 679.629 C 638.105 660.839 604.965 640.444 571.818 622.372 C 559.99 649.98 533.048 689.928 518.66 718.265 C 569.552 747.188 620.475 778.343 671.622 807.69 C 671.276 814.206 671.033 818.495 671.426 825.026 C 649.241 813.051 624.708 797.591 602.744 784.569 L 493.972 720.641 C 435.571 686.202 373.469 652.234 315.934 617.105 C 320.042 608.687 328.023 595.749 332.935 587.311 C 343.531 568.527 354.337 550.174 364.565 531.165 z"/>
<path transform="translate(0,0)" fill="rgb(30,35,97)" d="M 332.935 587.311 C 393.896 622.495 454.961 658.788 516.182 693.424 C 523.118 680.534 530.188 667.717 537.391 654.974 C 539.831 650.598 546.293 639.527 547.837 635.533 C 554.146 624.568 560.07 611.997 566.208 601.718 C 597.078 618.715 627.229 637.596 657.64 655.414 C 662.205 658.089 667.238 660.989 671.594 663.942 C 671.568 669.394 671.589 674.169 671.082 679.629 C 638.105 660.839 604.965 640.444 571.818 622.372 C 559.99 649.98 533.048 689.928 518.66 718.265 C 569.552 747.188 620.475 778.343 671.622 807.69 C 671.276 814.206 671.033 818.495 671.426 825.026 C 649.241 813.051 624.708 797.591 602.744 784.569 L 493.972 720.641 C 435.571 686.202 373.469 652.234 315.934 617.105 C 320.042 608.687 328.023 595.749 332.935 587.311 z"/>
<path transform="translate(0,0)" fill="rgb(29,137,195)" d="M 807.089 1175.64 C 809.436 1173.11 832.899 1159.08 837.344 1156.3 C 859.737 1142.26 883.206 1128.83 905 1113.9 L 905.06 1408.62 L 904.933 1511.38 C 904.93 1519.5 906.133 1561.71 903.833 1565.85 L 901.086 1566.07 C 858.656 1565.43 810.212 1567.84 769.134 1566.37 C 739.87 1541.5 703.334 1514.49 672.674 1490.5 C 670.384 1485.07 672.264 1294.95 671.59 1271.01 C 672.143 1264.28 671.859 1256.73 671.763 1249.9 C 678.584 1247.56 698.919 1236.61 705.645 1233.05 C 726.553 1222 747.272 1210.6 767.795 1198.85 C 781.156 1191.1 793.462 1183.09 807.089 1175.64 z"/>
<path transform="translate(0,0)" fill="rgb(30,35,97)" d="M 807.089 1175.64 C 809.436 1173.11 832.899 1159.08 837.344 1156.3 C 859.737 1142.26 883.206 1128.83 905 1113.9 L 905.06 1408.62 L 904.933 1511.38 C 904.93 1519.5 906.133 1561.71 903.833 1565.85 L 901.086 1566.07 C 895.171 1555.95 820.032 1501.77 806.27 1490.02 C 806.907 1408.42 807.104 1326.83 806.862 1245.23 C 808.89 1226.3 804.361 1191.61 807.089 1175.64 z"/>
<path transform="translate(0,0)" fill="rgb(12,15,66)" d="M 672.674 1490.5 C 680.94 1489.51 703.819 1490.03 713.781 1489.98 L 806.27 1490.02 C 820.032 1501.77 895.171 1555.95 901.086 1566.07 C 858.656 1565.43 810.212 1567.84 769.134 1566.37 C 739.87 1541.5 703.334 1514.49 672.674 1490.5 z"/>
<path transform="translate(0,0)" fill="rgb(37,71,130)" d="M 807.089 1175.64 C 804.361 1191.61 808.89 1226.3 806.862 1245.23 C 805.792 1231.68 805.974 1215.78 805.842 1202.02 C 774.714 1219.94 742.98 1236.78 710.695 1252.52 C 698.81 1258.3 683.658 1266.14 671.59 1271.01 C 672.143 1264.28 671.859 1256.73 671.763 1249.9 C 678.584 1247.56 698.919 1236.61 705.645 1233.05 C 726.553 1222 747.272 1210.6 767.795 1198.85 C 781.156 1191.1 793.462 1183.09 807.089 1175.64 z"/>
<path transform="translate(0,0)" fill="rgb(75,182,225)" d="M 1252.9 663.669 C 1262.1 665.333 1267.91 664.053 1276.87 664.538 C 1307.48 664.765 1338.08 664.809 1368.69 664.67 L 1368.76 773.328 C 1348.32 773.243 1191.98 771.822 1183.66 774.926 L 1182.88 774.983 L 1181.81 773.972 C 1159.82 789.937 1130.18 807.261 1106.55 821.802 C 1088.05 833.184 1060.82 850.998 1042.21 860.639 C 1042.56 870.144 1043.18 880.025 1042.36 889.466 C 1026.75 879.812 1010.91 870.53 994.857 861.63 C 994.45 861.545 992.513 861.798 992.013 861.848 C 984.503 862.005 974.999 862.366 967.71 861.503 C 953.285 859.987 934.118 863.019 919.975 860.762 C 915.253 857.069 909.716 853.241 904.796 849.698 L 900.385 848.278 C 891.692 847.602 887.353 846.494 879.859 842.101 C 879.079 819.434 878.652 796.757 878.579 774.077 C 878.427 756.588 878.425 739.097 878.571 721.607 C 877.685 703.379 878.233 682.769 878.082 664.22 L 1154 664.303 C 1169.45 664.332 1243.17 666.476 1252.9 663.669 z"/>
<path transform="translate(0,0)" fill="rgb(145,145,145)" d="M 878.579 774.077 L 1181.81 773.972 C 1159.82 789.937 1130.18 807.261 1106.55 821.802 C 1088.05 833.184 1060.82 850.998 1042.21 860.639 C 1042.56 870.144 1043.18 880.025 1042.36 889.466 C 1026.75 879.812 1010.91 870.53 994.857 861.63 C 994.45 861.545 992.513 861.798 992.013 861.848 C 984.503 862.005 974.999 862.366 967.71 861.503 C 953.285 859.987 934.118 863.019 919.975 860.762 C 915.253 857.069 909.716 853.241 904.796 849.698 L 900.385 848.278 C 891.692 847.602 887.353 846.494 879.859 842.101 C 879.079 819.434 878.652 796.757 878.579 774.077 z"/>
<path transform="translate(0,0)" fill="rgb(37,71,130)" d="M 994.857 861.63 C 1003.9 860.371 1031.81 860.781 1042.21 860.639 C 1042.56 870.144 1043.18 880.025 1042.36 889.466 C 1026.75 879.812 1010.91 870.53 994.857 861.63 z"/>
<path transform="translate(0,0)" fill="rgb(120,120,142)" d="M 879.859 842.101 C 890.523 839.189 892.28 841.36 900.385 848.278 C 891.692 847.602 887.353 846.494 879.859 842.101 z"/>
<path transform="translate(0,0)" fill="rgb(204,204,204)" d="M 1181.81 773.972 L 1182.88 774.983 L 1182.9 904.187 L 1182.92 929.885 C 1140.08 957.159 1099.41 989.635 1055.52 1015.72 C 1048.25 1020.04 1039.43 1022.34 1033.75 1028.35 C 1002.85 1049.59 970.159 1069.63 939.053 1090.7 C 934.325 1093.9 907.601 1110.89 905 1113.9 C 883.206 1128.83 859.737 1142.26 837.344 1156.3 C 832.899 1159.08 809.436 1173.11 807.089 1175.64 C 793.462 1183.09 781.156 1191.1 767.795 1198.85 C 747.272 1210.6 726.553 1222 705.645 1233.05 C 698.919 1236.61 678.584 1247.56 671.763 1249.9 C 630.831 1264.25 506.048 1339.12 467.013 1303.83 C 473.148 1302.42 474.439 1302.24 477.338 1296.59 C 520.612 1310.34 603.842 1266.05 644.663 1248.73 C 649.43 1246.71 668.845 1237.52 672.037 1234.09 C 693.182 1224.69 721.302 1208.17 741.746 1196.65 C 762.045 1185.22 787.17 1171.14 806.477 1158.38 C 818.386 1152.33 840.626 1138.28 852.158 1130.98 C 866.099 1122.16 892.455 1106.65 905.183 1096.64 C 910.557 1092.78 917.179 1088.64 922.81 1085.11 C 955.235 1064.75 986.032 1040.7 1018.21 1020.17 C 1022.87 1017.65 1026.75 1014.34 1030.93 1011.06 C 1035.77 1008.33 1037.75 1007.28 1042.08 1003.67 C 1041.98 970.372 1040.34 921.233 1042.36 889.466 C 1043.18 880.025 1042.56 870.144 1042.21 860.639 C 1060.82 850.998 1088.05 833.184 1106.55 821.802 C 1130.18 807.261 1159.82 789.937 1181.81 773.972 z"/>
<path transform="translate(0,0)" fill="rgb(215,215,215)" d="M 1042.08 1003.67 C 1047.78 999.736 1054.64 996.029 1060.76 991.815 C 1089.54 971.979 1118.08 951.798 1146.38 931.278 C 1154 925.794 1177.19 909.922 1182.9 904.187 L 1182.92 929.885 C 1140.08 957.159 1099.41 989.635 1055.52 1015.72 C 1048.25 1020.04 1039.43 1022.34 1033.75 1028.35 C 1002.85 1049.59 970.159 1069.63 939.053 1090.7 C 934.325 1093.9 907.601 1110.89 905 1113.9 C 883.206 1128.83 859.737 1142.26 837.344 1156.3 C 832.899 1159.08 809.436 1173.11 807.089 1175.64 C 793.462 1183.09 781.156 1191.1 767.795 1198.85 C 747.272 1210.6 726.553 1222 705.645 1233.05 C 698.919 1236.61 678.584 1247.56 671.763 1249.9 C 630.831 1264.25 506.048 1339.12 467.013 1303.83 C 473.148 1302.42 474.439 1302.24 477.338 1296.59 C 520.612 1310.34 603.842 1266.05 644.663 1248.73 C 649.43 1246.71 668.845 1237.52 672.037 1234.09 C 693.182 1224.69 721.302 1208.17 741.746 1196.65 C 762.045 1185.22 787.17 1171.14 806.477 1158.38 C 818.386 1152.33 840.626 1138.28 852.158 1130.98 C 866.099 1122.16 892.455 1106.65 905.183 1096.64 C 910.557 1092.78 917.179 1088.64 922.81 1085.11 C 955.235 1064.75 986.032 1040.7 1018.21 1020.17 C 1022.87 1017.65 1026.75 1014.34 1030.93 1011.06 C 1035.77 1008.33 1037.75 1007.28 1042.08 1003.67 z"/>
<path transform="translate(0,0)" fill="rgb(215,215,215)" d="M 670.868 454.5 C 708.902 455.254 747.792 454.596 785.992 455.024 C 804.865 468.289 825.312 485.408 843.866 497.898 L 843.894 614.872 C 808.483 615.085 761.216 616.656 726.73 614.931 C 708.017 601.494 689.448 587.857 671.026 574.024 C 670.377 562.776 670.955 545.492 670.962 533.878 L 670.868 454.5 z"/>
<path transform="translate(0,0)" fill="rgb(52,52,52)" d="M 785.992 455.024 C 804.865 468.289 825.312 485.408 843.866 497.898 L 843.894 614.872 C 808.483 615.085 761.216 616.656 726.73 614.931 C 708.017 601.494 689.448 587.857 671.026 574.024 C 702.804 571.768 752.678 573.176 786.216 573.088 C 785.608 534.237 786.069 493.949 785.992 455.024 z"/>
<path transform="translate(0,0)" fill="rgb(204,204,204)" d="M 1203.53 600.021 C 1206.01 590.34 1210.95 578.062 1214.7 568.593 C 1236.52 513.456 1257.37 458.109 1277.62 402.372 C 1279.23 397.961 1284.62 383.575 1287.32 380.37 L 1288.48 381.059 C 1314.02 415.037 1336.37 453.704 1362.03 487.897 C 1366.51 493.879 1373.11 503.11 1376.83 509.516 C 1374.75 513.853 1219.36 594.882 1204.22 602.495 L 1202.57 602.286 L 1203.53 600.021 z"/>
<path transform="translate(0,0)" fill="rgb(37,71,130)" d="M 1301.42 487.558 C 1321.75 492.369 1359.52 506.887 1376.83 509.516 C 1374.75 513.853 1219.36 594.882 1204.22 602.495 L 1202.57 602.286 L 1203.53 600.021 C 1207.48 599.224 1290.42 500.588 1301.42 487.558 z"/>
<path transform="translate(0,0)" fill="rgb(29,137,195)" d="M 1288.48 381.059 C 1314.02 415.037 1336.37 453.704 1362.03 487.897 C 1366.51 493.879 1373.11 503.11 1376.83 509.516 C 1359.52 506.887 1321.75 492.369 1301.42 487.558 C 1298.07 460.987 1295.31 434.405 1291.42 407.894 C 1290.28 400.137 1288.19 388.641 1288.48 381.059 z"/>
<path transform="translate(0,0)" fill="rgb(204,204,204)" d="M 542.718 932.911 C 548.349 976.302 557.204 1031.76 560.336 1074.39 L 560.808 1075.21 C 558.83 1076.65 533.036 1072.61 528.62 1072.04 L 427.27 1058.64 C 412.082 1056.73 395.239 1055.47 380.387 1053.26 C 386.295 1046.12 423.794 1020.46 434.387 1012.61 L 503.052 961.608 C 513.304 953.97 532.217 939.015 542.718 932.911 z"/>
<path transform="translate(0,0)" fill="rgb(30,35,97)" d="M 380.387 1053.26 C 387.693 1050.28 414.156 1045.01 423.48 1042.97 L 510.951 1023.69 C 522.804 1034.96 533.65 1047.07 545.028 1058.76 C 548.598 1062.43 556.917 1071.72 560.336 1074.39 L 560.808 1075.21 C 558.83 1076.65 533.036 1072.61 528.62 1072.04 L 427.27 1058.64 C 412.082 1056.73 395.239 1055.47 380.387 1053.26 z"/>
<path transform="translate(0,0)" fill="rgb(107,106,106)" d="M 542.718 932.911 C 548.349 976.302 557.204 1031.76 560.336 1074.39 C 556.917 1071.72 548.598 1062.43 545.028 1058.76 C 533.65 1047.07 522.804 1034.96 510.951 1023.69 C 513.093 1019.36 514.724 1014.9 516.311 1010.34 C 525.238 984.667 534.902 958.931 542.718 932.911 z"/>
<path transform="translate(0,0)" fill="rgb(52,52,52)" d="M 1680.21 1258.63 C 1700.65 1267.93 1741.91 1294.26 1763.62 1306.81 C 1758.78 1316.76 1751.42 1328.83 1745.87 1338.74 C 1736.91 1354.71 1727.77 1371.65 1718.11 1387.12 C 1694.26 1371.68 1659.12 1352.9 1633.68 1338.2 C 1645.21 1315.45 1666.68 1281.49 1680.21 1258.63 z"/>
<path transform="translate(0,0)" fill="rgb(145,145,145)" d="M 1252.9 663.669 C 1272.85 649.096 1295.36 637.152 1316.62 624.606 C 1374.61 590.394 1525.33 502.126 1590.61 512.41 C 1600.09 513.903 1609.14 517.937 1614.74 526.059 C 1619.34 532.737 1619.51 541.365 1617.88 549.043 C 1608.97 591.02 1536.81 655.682 1503.45 683.622 C 1485.43 698.708 1465.48 712.933 1448.38 728.909 C 1445.77 726.378 1440.46 722.372 1437.45 719.953 C 1481.85 685.197 1588.65 600.415 1604.51 548.246 C 1605.97 543.443 1606.5 537.899 1603.8 533.413 C 1601.2 529.102 1596.75 526.854 1591.98 525.754 C 1527.56 510.911 1336.23 628.708 1276.87 664.538 C 1267.91 664.053 1262.1 665.333 1252.9 663.669 z"/>
<path transform="translate(0,0)" fill="rgb(37,71,130)" d="M 1351.75 1294.78 C 1390.08 1315.19 1432.25 1336.44 1471.05 1355.9 L 1437.1 1376.62 C 1419.54 1386.17 1397.66 1399.92 1380.51 1410.45 L 1351.75 1294.78 z"/>
<path transform="translate(0,0)" fill="rgb(145,145,145)" d="M 671.547 1081.41 L 671.698 1099.69 C 658.353 1106.68 645.483 1119.14 633.641 1128.6 C 595.993 1158.66 489.484 1244.07 477.182 1286.03 C 476.047 1289.9 475.873 1292.77 477.338 1296.59 C 474.439 1302.24 473.148 1302.42 467.013 1303.83 C 463.535 1298.73 462.086 1293.71 462.788 1287.52 C 468.453 1237.49 628.801 1114.53 671.547 1081.41 z"/>
<path transform="translate(0,0)" fill="rgb(37,71,130)" d="M 905.725 937.227 L 979.685 980.694 C 993.406 988.604 1018.64 1002.16 1030.93 1011.06 C 1026.75 1014.34 1022.87 1017.65 1018.21 1020.17 C 980.683 998.089 943.004 976.265 905.175 954.703 C 905.042 948.36 905.325 943.538 905.725 937.227 z"/>
<path transform="translate(0,0)" fill="rgb(145,145,145)" d="M 905.245 902.474 C 925.694 890.298 947.782 874.897 967.71 861.503 C 974.999 862.366 984.503 862.005 992.013 861.848 C 975.028 873.801 957.95 885.62 940.779 897.303 C 931.712 903.509 914.6 915.537 905.376 920.539 L 905.245 902.474 z"/>
</svg>
