<svg xmlns="http://www.w3.org/2000/svg" viewBox="0 0 1200 630">
  <defs>
    <linearGradient id="bgGrad" x1="0%" y1="0%" x2="100%" y2="100%">
      <stop offset="0%" style="stop-color:#0A1520;stop-opacity:1" />
      <stop offset="100%" style="stop-color:#0F1B2A;stop-opacity:1" />
    </linearGradient>
    <linearGradient id="accentGrad" x1="0%" y1="0%" x2="100%" y2="100%">
      <stop offset="0%" style="stop-color:#41C8D8;stop-opacity:1" />
      <stop offset="100%" style="stop-color:#2AA3B0;stop-opacity:1" />
    </linearGradient>
    <radialGradient id="glow" cx="50%" cy="50%">
      <stop offset="0%" style="stop-color:#41C8D8;stop-opacity:0.2" />
      <stop offset="100%" style="stop-color:#41C8D8;stop-opacity:0" />
    </radialGradient>
  </defs>
  <!-- Background -->
  <rect width="1200" height="630" fill="url(#bgGrad)"/>
  
  <!-- Subtle glow effects -->
  <circle cx="150" cy="150" r="100" fill="url(#glow)"/>
  <circle cx="1050" cy="480" r="130" fill="url(#glow)"/>
  
  <!-- Geometric pattern background - subtle -->
  <g opacity="0.08">
    <circle cx="200" cy="200" r="50" fill="#41C8D8"/>
    <circle cx="1000" cy="430" r="60" fill="#41C8D8"/>
  </g>
  
  <!-- Main "IT" Monogram - Large and Clear -->
  <g transform="translate(350, 140)">
    <!-- Letter I -->
    <rect x="0" y="0" width="80" height="30" rx="8" fill="url(#accentGrad)"/>
    <rect x="0" y="100" width="80" height="30" rx="8" fill="url(#accentGrad)"/>
    <rect x="30" y="30" width="20" height="70" rx="8" fill="url(#accentGrad)"/>
    
    <!-- Letter T -->
    <rect x="130" y="0" width="100" height="30" rx="8" fill="url(#accentGrad)"/>
    <rect x="165" y="30" width="30" height="100" rx="8" fill="url(#accentGrad)"/>
  </g>
  
  <!-- Accent decorative elements - subtle -->
  <circle cx="750" cy="280" r="45" fill="url(#accentGrad)" opacity="0.25"/>
  <circle cx="800" cy="330" r="28" fill="#41C8D8" opacity="0.4"/>
  <circle cx="820" cy="350" r="12" fill="#41C8D8" opacity="0.6"/>
  
  <!-- Very subtle grid lines for depth -->
  <g opacity="0.06" stroke="#41C8D8" stroke-width="2">
    <line x1="0" y1="210" x2="1200" y2="210"/>
    <line x1="0" y1="420" x2="1200" y2="420"/>
  </g>
  
  <!-- Bottom accent line -->
  <rect x="0" y="600" width="1200" height="30" fill="url(#accentGrad)" opacity="0.15"/>
</svg>
