<svg xmlns="http://www.w3.org/2000/svg" viewBox="0 0 1200 630">
  <defs>
    <linearGradient id="bgGrad" x1="0%" y1="0%" x2="100%" y2="100%">
      <stop offset="0%" style="stop-color:#0A1520;stop-opacity:1" />
      <stop offset="100%" style="stop-color:#0F1B2A;stop-opacity:1" />
    </linearGradient>
    <linearGradient id="accentGrad" x1="0%" y1="0%" x2="100%" y2="100%">
      <stop offset="0%" style="stop-color:#41C8D8;stop-opacity:1" />
      <stop offset="100%" style="stop-color:#2AA3B0;stop-opacity:1" />
    </linearGradient>
    <radialGradient id="glow" cx="50%" cy="50%">
      <stop offset="0%" style="stop-color:#41C8D8;stop-opacity:0.3" />
      <stop offset="100%" style="stop-color:#41C8D8;stop-opacity:0" />
    </radialGradient>
  </defs>
  <!-- Background -->
  <rect width="1200" height="630" fill="url(#bgGrad)"/>
  
  <!-- Animated glow effects -->
  <circle cx="150" cy="150" r="120" fill="url(#glow)"/>
  <circle cx="1050" cy="480" r="150" fill="url(#glow)"/>
  
  <!-- Geometric pattern background -->
  <g opacity="0.1">
    <circle cx="200" cy="200" r="60" fill="#41C8D8"/>
    <circle cx="1000" cy="430" r="80" fill="#41C8D8"/>
    <rect x="800" y="100" width="100" height="100" rx="8" fill="#41C8D8" transform="rotate(45 850 150)"/>
  </g>
  
  <!-- Main "IT" monogram - modern and bold -->
  <g transform="translate(350, 180)">
    <!-- Letter I - bold geometric -->
    <rect x="0" y="0" width="70" height="25" rx="6" fill="url(#accentGrad)"/>
    <rect x="0" y="95" width="70" height="25" rx="6" fill="url(#accentGrad)"/>
    <rect x="25" y="25" width="20" height="70" rx="6" fill="url(#accentGrad)"/>
    
    <!-- Letter T - bold geometric -->
    <rect x="110" y="0" width="90" height="25" rx="6" fill="url(#accentGrad)"/>
    <rect x="140" y="25" width="30" height="95" rx="6" fill="url(#accentGrad)"/>
  </g>
  
  <!-- Accent decorative elements -->
  <circle cx="750" cy="280" r="50" fill="url(#accentGrad)" opacity="0.3"/>
  <circle cx="800" cy="330" r="30" fill="#41C8D8" opacity="0.5"/>
  <circle cx="820" cy="350" r="15" fill="#41C8D8"/>
  
  <!-- Subtle grid lines for depth -->
  <g opacity="0.08" stroke="#41C8D8" stroke-width="2">
    <line x1="0" y1="200" x2="1200" y2="200"/>
    <line x1="0" y1="430" x2="1200" y2="430"/>
    <line x1="300" y1="0" x2="300" y2="630"/>
    <line x1="900" y1="0" x2="900" y2="630"/>
  </g>
  
  <!-- Bottom accent line -->
  <rect x="0" y="600" width="1200" height="30" fill="url(#accentGrad)" opacity="0.2"/>
</svg>
